<?xml version="1.0" encoding="UTF-8" standalone="no"?>
<svg
   width="481.41214"
   zoomAndPan="magnify"
   viewBox="0 0 361.0591 80.700621"
   height="107.60083"
   preserveAspectRatio="xMidYMid"
   version="1.0"
   id="svg23"
   xmlns="http://www.w3.org/2000/svg"
   xmlns:svg="http://www.w3.org/2000/svg">
  <defs
     id="defs1">
    <g
       id="g1" />
    <clipPath
       clipPathUnits="userSpaceOnUse"
       id="clipPath24">
      <g
         id="g25"
         style="stroke-width:1">
        <path
           d="m 143.32422,133.96875 h 80.47265 V 215 h -80.47265 z m 0,0"
           clip-rule="nonzero"
           id="path24"
           style="stroke-width:1" />
      </g>
    </clipPath>
  </defs>
  <g
     id="g26"
     transform="translate(-7.4182172,-108.60737)">
    <path
       fill="#000000"
       d="m 214.70217,159.79897 c -0.0312,0.0117 -0.11718,0.0391 -0.11718,0.043 -0.008,0 0.0976,-0.0391 0.0976,-0.0391 0,0 0.0156,-0.004 0.0195,-0.004 z m 0,0"
       fill-opacity="1"
       fill-rule="nonzero"
       id="path2" />
    <path
       fill="#ff5722"
       d="m 183.96875,133.97656 c -5.76953,0 -11.46875,1.26953 -16.6875,3.71485 -6.25391,2.92968 -11.61328,7.45703 -15.53516,13.11718 l -0.85547,-3.11328 c -0.52343,-1.90234 -2.51953,-3.03515 -4.41796,-2.51172 -1.90235,0.52344 -3.03516,2.52344 -2.51172,4.42188 l 3.10937,11.30078 c 0,0 -0.0117,-0.0547 -0.0195,-0.0937 0.008,0.0469 0.0273,0.10937 0.0273,0.10937 0.39063,1.41797 1.59375,2.41407 2.97657,2.59766 h 0.0156 c 0.004,0 0.0273,-0.004 0.0352,-0.004 0.0586,-0.004 0.17578,-0.0117 0.28515,-0.0234 -0.0273,0.008 -0.0312,0.004 -0.0625,0.008 0.36719,0.0195 0.7461,0.0234 1.1211,-0.0781 0.0117,0 0.0391,-0.008 0.0391,-0.008 h 0.004 c -0.0352,0.0117 -0.0273,0.0117 0.0273,-0.008 l 11.38672,-3.14063 c 1.89453,-0.52343 3.02344,-2.51171 2.50391,-4.40234 -0.52344,-1.89062 -2.50782,-3.01953 -4.40235,-2.49609 l -3.57812,0.98828 c 3.23047,-4.55469 7.60156,-8.31641 12.67968,-10.69922 7.69532,-3.60547 16.84766,-4.0625 24.86329,-1.20313 8.01562,2.85938 14.78515,8.9961 18.42187,16.64454 2.17188,4.5664 3.11719,9.64062 2.98047,14.6875 -0.0195,0.18359 -0.0195,0.37109 -0.008,0.55468 v 0.0117 c 0.0312,0.41406 0.14062,0.82031 0.32031,1.19531 0.80078,1.67969 2.82031,2.39844 4.51172,1.60938 1.30469,-0.60938 2.07812,-1.97656 1.92969,-3.40234 0.13671,-6.03516 -1.14063,-12.01954 -3.73438,-17.47657 -6.47266,-13.61718 -20.26953,-22.30468 -35.42578,-22.30078 z m -37.14063,37.19141 c -0.49218,0.004 -0.97656,0.11328 -1.42187,0.32422 -1.30078,0.60937 -2.07422,1.96875 -1.92578,3.39453 -0.13672,6.03515 1.14062,12.01953 3.73437,17.48047 9.23047,19.42578 32.5586,27.74609 52.10938,18.58593 6.2539,-2.93359 11.61328,-7.45703 15.53515,-13.11718 l 0.85547,3.11328 c 0.52344,1.90234 2.51953,3.03515 4.42188,2.51172 1.90234,-0.52344 3.03125,-2.52344 2.50781,-4.42578 l -3.10547,-11.30079 c 0,0 0.008,0.0547 0.0156,0.0977 -0.0117,-0.0508 -0.0234,-0.10937 -0.0234,-0.10937 -0.39453,-1.41797 -1.59375,-2.41797 -2.97656,-2.59766 h -0.0195 c -0.004,0 -0.0273,0.004 -0.0352,0.004 -0.0586,0.004 -0.17578,0.0117 -0.28125,0.0195 0.0273,-0.004 0.0312,-0.004 0.0586,-0.008 -0.36718,-0.0195 -0.74609,-0.0195 -1.12109,0.082 -0.0117,0 -0.0391,0.004 -0.0391,0.004 h -0.004 c 0.0352,-0.008 0.0312,-0.008 -0.0234,0.008 l -11.39062,3.14063 c -1.89453,0.52344 -3.02344,2.51172 -2.5,4.40234 0.51953,1.89063 2.50781,3.01953 4.39844,2.5 l 3.58203,-0.99218 c -3.23438,4.55859 -7.60157,8.32031 -12.67969,10.69921 -7.69922,3.60938 -16.85156,4.0625 -24.86719,1.20704 -8.01172,-2.85938 -14.78515,-8.9961 -18.42187,-16.64844 -2.16797,-4.56641 -3.11328,-9.64063 -2.98047,-14.6836 0.0586,-0.60546 -0.0469,-1.21093 -0.3086,-1.75781 -0.5664,-1.1875 -1.76953,-1.9414 -3.09375,-1.93359 z m 0,0"
       fill-opacity="1"
       fill-rule="nonzero"
       id="path3"
       clip-path="url(#clipPath24)"
       transform="translate(-1.3837638,-25.369003)" />
    <path
       fill="#000000"
       d="m 149.25686,138.06459 c 0.004,0 -0.10156,0.0391 -0.10156,0.0391 0,0 -0.0156,0.004 -0.0156,0.004 0.0274,-0.0117 0.11329,-0.043 0.11719,-0.043 z m 0,0"
       fill-opacity="1"
       fill-rule="nonzero"
       id="path4" />
    <path
       fill="#373435"
       d="m 180.36233,128.08022 c -2.05078,0 -3.72656,1.67187 -3.73047,3.72265 l -0.0234,17.24219 c -0.004,1.03125 0.42188,1.96484 1.09375,2.63672 0.17579,0.19531 0.375,0.38672 0.625,0.5664 l 12.6211,8.85938 c 1.67969,1.17969 4.01562,0.77344 5.19531,-0.90625 1.17969,-1.67969 0.76953,-4.01563 -0.91016,-5.19141 l -11.16406,-7.83984 0.0195,-15.35547 c 0,0 0,-0.004 0,-0.004 0.004,-2.05078 -1.67578,-3.72656 -3.72656,-3.73046 z m 0,0"
       fill-opacity="1"
       fill-rule="nonzero"
       id="path5" />
    <g
       transform="translate(2.4455612,174.87215)"
       id="g7"
       style="fill:#373435;fill-opacity:1">
      <g
         id="g6">
        <path
           d="m 28.183594,-8.15625 c 2.257812,0 4.3125,-0.332031 6.300781,-1.128906 1.921875,-0.796875 3.582031,-1.855469 4.972656,-3.316406 0.796875,-0.859376 1.792969,-1.324219 2.984375,-1.324219 0.996094,0 1.925782,0.398437 2.785156,1.125 0.796876,0.796875 1.261719,1.726562 1.261719,2.851562 0,1.128907 -0.332031,2.125 -1.0625,2.917969 -2.121093,2.257812 -4.707031,4.046875 -7.625,5.242188 C 34.816406,-0.597656 31.632812,0 28.183594,0 24.734375,0 21.621094,-0.53125 18.835938,-1.65625 15.980469,-2.785156 13.527344,-4.375 11.472656,-6.433594 9.417969,-8.488281 7.824219,-10.941406 6.699219,-13.792969 c -1.195313,-2.851562 -1.726563,-5.96875 -1.726563,-9.417969 0,-3.382812 0.53125,-6.5 1.726563,-9.351562 1.125,-2.851562 2.71875,-5.304688 4.773437,-7.359375 2.054688,-2.058594 4.507813,-3.648437 7.363282,-4.777344 2.785156,-1.125 5.898437,-1.722656 9.347656,-1.722656 3.449218,0 6.632812,0.664063 9.617187,1.855469 2.917969,1.195312 5.503907,2.917968 7.625,5.175781 0.730469,0.859375 1.0625,1.855469 1.0625,2.984375 0,1.125 -0.464843,2.054688 -1.261719,2.785156 -0.859374,0.792969 -1.789062,1.125 -2.785156,1.125 -1.191406,0 -2.1875,-0.398437 -2.984375,-1.324218 -1.324219,-1.394532 -2.984375,-2.453126 -4.90625,-3.25 -1.988281,-0.796876 -4.109375,-1.195313 -6.367187,-1.195313 -1.722656,0 -3.515625,0.265625 -5.304688,0.796875 -1.789062,0.53125 -3.382812,1.390625 -4.839844,2.585938 -1.460937,1.195312 -2.652343,2.71875 -3.582031,4.640624 -0.929687,1.925782 -1.328125,4.246094 -1.328125,7.03125 0,2.785157 0.398438,5.171876 1.328125,7.097657 0.929688,1.921875 2.121094,3.445312 3.582031,4.640625 1.457032,1.195312 3.050782,1.988281 4.839844,2.519531 1.789063,0.53125 3.582032,0.796875 5.304688,0.796875 z m 0,0"
           id="path6" />
      </g>
    </g>
    <g
       transform="translate(53.959585,174.87215)"
       id="g10"
       style="fill:#373435;fill-opacity:1">
      <g
         id="g9">
        <path
           d="m 15.652344,-29.246094 h 15.78125 c 1.460937,0 2.253906,-0.730468 2.253906,-2.253906 v -10.609375 c 0,-1.128906 0.398438,-2.125 1.195312,-2.917969 0.796876,-0.796875 1.722657,-1.195312 2.917969,-1.195312 1.128907,0 2.121094,0.398437 2.917969,1.195312 0.796875,0.792969 1.195312,1.722656 1.195312,2.851563 v 38.261719 c 0,1.195312 -0.398437,2.125 -1.195312,2.917968 -0.796875,0.796875 -1.722656,1.128906 -2.851562,1.128906 -1.195313,0 -2.121094,-0.398437 -2.917969,-1.195312 -0.796875,-0.792969 -1.128907,-1.722656 -1.128907,-2.917969 v -14.523437 c 0,-0.660156 -0.265624,-1.257813 -0.726562,-1.789063 -0.53125,-0.464843 -1.128906,-0.730469 -1.792969,-0.730469 h -15.78125 c -0.730469,0 -1.328125,0.265626 -1.792969,0.730469 C 13.195312,-19.761719 13,-19.164062 13,-18.503906 v 14.523437 c 0,1.195313 -0.398438,2.125 -1.195312,2.917969 -0.796876,0.796875 -1.722657,1.1289062 -2.851563,1.1289062 -1.195313,0 -2.121094,-0.3984372 -2.917969,-1.1953122 C 5.238281,-1.921875 4.90625,-2.851562 4.90625,-4.046875 v -38.261719 c 0,-1.128906 0.398438,-2.125 1.195312,-2.917968 0.796876,-0.796876 1.722657,-1.195313 2.917969,-1.195313 1.128907,0 2.121094,0.398437 2.917969,1.195313 0.796875,0.792968 1.191406,1.722656 1.191406,2.851562 v 10.609375 c 0,0.730469 0.199219,1.324219 0.730469,1.789063 0.464844,0.53125 1.0625,0.730468 1.792969,0.730468 z m 0,0"
           id="path8" />
      </g>
    </g>
    <g
       transform="translate(101.0316,174.87215)"
       id="g13"
       style="fill:#373435;fill-opacity:1">
      <g
         id="g12">
        <path
           d="m 13,-35.746094 v 6.101563 c 0,0.730469 0.195312,1.328125 0.726562,1.792969 0.464844,0.527343 1.0625,0.726562 1.792969,0.726562 h 4.507813 c 0.265625,0 0.664062,0 1.328125,-0.132812 0.660156,-0.06641 1.324219,-0.265626 1.988281,-0.660157 0.664062,-0.332031 1.324219,-0.863281 1.855469,-1.660156 0.53125,-0.730469 0.796875,-1.789063 0.796875,-3.117187 0,-1.324219 -0.265625,-2.320313 -0.796875,-3.117188 -0.53125,-0.726562 -1.191407,-1.257812 -1.855469,-1.65625 -0.664062,-0.332031 -1.328125,-0.53125 -1.988281,-0.664062 -0.664063,-0.06641 -1.0625,-0.132813 -1.328125,-0.132813 h -4.507813 c -0.730469,0 -1.328125,0.265625 -1.792969,0.730469 C 13.195312,-37.003906 13,-36.40625 13,-35.746094 Z m 16.910156,13.265625 -0.132812,0.06641 c -1.0625,0.925781 -2.125,1.589843 -3.316406,2.121093 -0.265626,0.132813 -0.398438,0.265625 -0.464844,0.53125 -0.132813,0.265625 -0.06641,0.53125 0.06641,0.730469 l 7.890625,12.863281 c 0.398437,0.664063 0.597656,1.394531 0.597656,2.121094 0,0.730469 -0.199219,1.394531 -0.53125,1.992187 -0.332031,0.597657 -0.792969,1.058594 -1.390625,1.457032 C 31.964844,-0.199219 31.300781,0 30.503906,0 28.980469,0 27.851562,-0.597656 27.058594,-1.921875 l -9.550782,-15.652344 c -0.597656,-0.863281 -1.394531,-1.324219 -2.320312,-1.324219 -0.664062,0 -1.128906,0.195313 -1.527344,0.59375 -0.398437,0.398438 -0.597656,0.929688 -0.597656,1.527344 v 12.730469 c 0,1.195313 -0.394531,2.125 -1.191406,2.917969 C 11.074219,-0.332031 10.148438,0 9.019531,0 7.824219,0 6.898438,-0.398438 6.101562,-1.195312 5.304688,-1.988281 4.972656,-2.917969 4.972656,-4.113281 V -42.375 c 0,-1.128906 0.398438,-2.125 1.195313,-2.917969 0.796875,-0.796875 1.722656,-1.195312 2.917969,-1.195312 h 11.074218 c 1.988282,0 3.847656,0.398437 5.570313,1.0625 1.726562,0.660156 3.183593,1.65625 4.445312,2.851562 1.257813,1.191407 2.253907,2.652344 2.984375,4.308594 0.726563,1.726563 1.125,3.582031 1.125,5.570313 0,4.179687 -1.457031,7.5625 -4.375,10.214843 z m 0,0"
           id="path11" />
      </g>
    </g>
    <g
       transform="translate(223.07249,174.87215)"
       id="g16"
       style="fill:#373435;fill-opacity:1">
      <g
         id="g15">
        <path
           d="m 12.136719,-44.964844 23.609375,27.988282 c 0.199218,0.265624 0.464844,0.398437 0.726562,0.398437 0.398438,0 0.597656,-0.199219 0.597656,-0.730469 v -24.867187 c 0,-1.128907 0.398438,-2.125 1.195313,-2.917969 0.796875,-0.796875 1.722656,-1.195312 2.917969,-1.195312 1.125,0 2.121094,0.398437 2.917968,1.195312 0.796876,0.792969 1.191407,1.722656 1.191407,2.851562 v 38.261719 c 0,1.195313 -0.394531,2.125 -1.191407,2.917969 C 43.304688,-0.265625 42.375,0.0664062 41.25,0.0664062 c -1.261719,0 -2.320312,-0.4648442 -3.117188,-1.4609372 L 14.523438,-29.378906 c -0.265626,-0.199219 -0.464844,-0.332032 -0.664063,-0.332032 -0.597656,0 -0.859375,0.332032 -0.859375,0.863282 v 24.867187 c 0,1.195313 -0.398438,2.125 -1.195312,2.917969 -0.796876,0.796875 -1.722657,1.1289062 -2.851563,1.1289062 -1.195313,0 -2.121094,-0.3984372 -2.917969,-1.1953122 C 5.238281,-1.921875 4.90625,-2.851562 4.90625,-4.046875 v -38.261719 c 0,-1.128906 0.398438,-2.125 1.195312,-2.917968 0.796876,-0.796876 1.722657,-1.195313 2.917969,-1.195313 1.191407,0 2.253907,0.53125 3.117188,1.457031 z m 0,0"
           id="path14" />
      </g>
    </g>
    <g
       transform="translate(273.45944,174.87215)"
       id="g19"
       style="fill:#373435;fill-opacity:1">
      <g
         id="g18">
        <path
           d="m 28.183594,-8.15625 c 1.726562,0 3.449218,-0.265625 5.238281,-0.796875 1.792969,-0.53125 3.449219,-1.324219 4.910156,-2.519531 1.457031,-1.195313 2.585938,-2.71875 3.515625,-4.640625 0.925782,-1.925781 1.390625,-4.3125 1.390625,-7.097657 0,-2.785156 -0.464843,-5.105468 -1.390625,-7.03125 -0.929687,-1.921874 -2.058594,-3.445312 -3.515625,-4.640624 -1.460937,-1.195313 -3.117187,-2.054688 -4.910156,-2.585938 -1.789063,-0.53125 -3.511719,-0.796875 -5.238281,-0.796875 -1.722656,0 -3.515625,0.265625 -5.304688,0.796875 -1.789062,0.53125 -3.382812,1.390625 -4.839844,2.585938 -1.460937,1.195312 -2.652343,2.71875 -3.582031,4.640624 -0.929687,1.925782 -1.328125,4.246094 -1.328125,7.03125 0,2.785157 0.398438,5.171876 1.328125,7.097657 0.929688,1.921875 2.121094,3.445312 3.582031,4.640625 1.457032,1.195312 3.050782,1.988281 4.839844,2.519531 1.789063,0.53125 3.582032,0.796875 5.304688,0.796875 z m 0,-38.265625 c 3.382812,0 6.5,0.597656 9.351562,1.722656 2.785156,1.128907 5.238282,2.71875 7.296875,4.777344 2.054688,2.054687 3.644531,4.507813 4.839844,7.359375 1.125,2.851562 1.722656,5.96875 1.722656,9.351562 0,3.449219 -0.597656,6.566407 -1.722656,9.417969 -1.195313,2.851563 -2.785156,5.304688 -4.839844,7.359375 C 42.773438,-4.375 40.320312,-2.785156 37.535156,-1.65625 34.683594,-0.53125 31.566406,0 28.183594,0 24.734375,0 21.621094,-0.53125 18.835938,-1.65625 15.980469,-2.785156 13.527344,-4.375 11.472656,-6.433594 9.417969,-8.488281 7.824219,-10.941406 6.699219,-13.792969 c -1.195313,-2.851562 -1.726563,-5.96875 -1.726563,-9.417969 0,-3.382812 0.53125,-6.5 1.726563,-9.351562 1.125,-2.851562 2.71875,-5.304688 4.773437,-7.359375 2.054688,-2.058594 4.507813,-3.648437 7.363282,-4.777344 2.785156,-1.125 5.898437,-1.722656 9.347656,-1.722656 z m 0,0"
           id="path17" />
      </g>
    </g>
    <g
       transform="translate(329.81325,174.87215)"
       id="g22"
       style="fill:#373435;fill-opacity:1">
      <g
         id="g21">
        <path
           d="m 32.894531,-23.875 0.660157,0.398438 c 1.460937,0.929687 2.71875,2.253906 3.648437,3.914062 0.929687,1.65625 1.460937,3.582031 1.460937,5.835938 0,1.589843 -0.332031,3.25 -0.929687,4.839843 -0.597656,1.59375 -1.523437,3.050781 -2.851563,4.378907 -1.328124,1.324218 -3.117187,2.386718 -5.238281,3.179687 -2.121093,0.796875 -4.777343,1.195313 -7.890625,1.195313 -3.78125,0 -6.964844,-0.398438 -9.484375,-1.324219 C 9.75,-2.320312 7.625,-3.714844 5.902344,-5.636719 5.105469,-6.433594 4.773438,-7.425781 4.839844,-8.554688 c 0,-1.128906 0.464844,-2.054687 1.328125,-2.851562 0.398437,-0.332031 0.796875,-0.597656 1.257812,-0.796875 0.464844,-0.132813 0.929688,-0.265625 1.460938,-0.265625 1.195312,0 2.253906,0.464844 3.050781,1.328125 0.199219,0.265625 0.464844,0.53125 0.863281,0.863281 0.328125,0.328125 0.859375,0.660156 1.589844,0.925782 0.730469,0.265624 1.65625,0.53125 2.851563,0.730468 1.195312,0.265625 2.652343,0.332032 4.511718,0.332032 0.859375,0 1.789063,-0.066407 2.851563,-0.199219 1.058593,-0.132813 1.988281,-0.398438 2.917969,-0.796875 0.859374,-0.398438 1.589843,-0.925782 2.1875,-1.65625 0.597656,-0.664063 0.925781,-1.59375 0.925781,-2.785156 0,-0.664063 -0.132813,-1.261719 -0.394531,-1.792969 -0.265626,-0.527344 -0.730469,-0.992188 -1.394532,-1.390625 -0.664062,-0.398438 -1.65625,-0.796875 -2.851562,-1.195313 -1.195313,-0.398437 -2.785156,-0.792969 -4.640625,-1.257812 -1.859375,-0.398438 -3.714844,-0.929688 -5.570313,-1.527344 -1.859375,-0.53125 -3.515625,-1.324219 -4.976562,-2.320313 -1.457032,-0.929687 -2.652344,-2.1875 -3.578125,-3.714843 C 6.300781,-28.449219 5.835938,-30.375 5.835938,-32.761719 v -0.132812 c 0,-2.1875 0.398437,-4.109375 1.328124,-5.835938 0.925782,-1.65625 2.121094,-3.050781 3.644532,-4.242187 1.460937,-1.128906 3.183594,-1.992188 5.109375,-2.585938 1.921875,-0.597656 3.910156,-0.929687 5.898437,-0.929687 2.589844,0 4.84375,0.398437 6.699219,1.0625 1.859375,0.726562 3.648437,1.855469 5.238281,3.378906 0.796875,0.796875 1.195313,1.792969 1.195313,2.917969 0,1.128906 -0.332031,2.058594 -1.128907,2.855468 -0.792968,0.792969 -1.789062,1.191407 -2.851562,1.191407 -1.191406,0 -2.121094,-0.398438 -2.917969,-1.191407 -0.59375,-0.53125 -1.324219,-1.0625 -2.121093,-1.460937 -0.863282,-0.398437 -2.1875,-0.597656 -4.046876,-0.597656 -2.320312,0 -4.242187,0.53125 -5.703124,1.59375 -1.457032,1.058593 -2.1875,2.320312 -2.1875,3.910156 v 0.132813 c 0,0.730468 0.06641,1.328124 0.332031,1.792968 0.265625,0.527344 0.730469,0.992188 1.394531,1.390625 0.660156,0.398438 1.65625,0.796875 2.851562,1.128907 1.191407,0.398437 2.71875,0.796874 4.640626,1.191406 1.65625,0.398437 3.316406,0.863281 5.039062,1.328125 1.660156,0.464843 3.183594,1.128906 4.644531,1.988281 z m 0,0"
           id="path20" />
      </g>
    </g>
  </g>
</svg>
