<?xml version="1.0" encoding="UTF-8" standalone="no"?>
<svg
   width="106.24616"
   zoomAndPan="magnify"
   viewBox="0 0 79.684621 80.700621"
   height="107.60083"
   preserveAspectRatio="xMidYMid"
   version="1.0"
   id="svg23"
   xmlns="http://www.w3.org/2000/svg"
   xmlns:svg="http://www.w3.org/2000/svg">
  <defs
     id="defs1">
    <g
       id="g1" />
    <clipPath
       clipPathUnits="userSpaceOnUse"
       id="clipPath24">
      <g
         id="g25"
         style="stroke-width:1">
        <path
           d="m 143.32422,133.96875 h 80.47265 V 215 h -80.47265 z m 0,0"
           clip-rule="nonzero"
           id="path24"
           style="stroke-width:1" />
      </g>
    </clipPath>
  </defs>
  <g
     id="g26"
     transform="translate(-142.07857,-108.60737)">
    <path
       fill="#000000"
       d="m 214.70217,159.79897 c -0.0312,0.0117 -0.11718,0.0391 -0.11718,0.043 -0.008,0 0.0976,-0.0391 0.0976,-0.0391 0,0 0.0156,-0.004 0.0195,-0.004 z m 0,0"
       fill-opacity="1"
       fill-rule="nonzero"
       id="path2" />
    <path
       fill="#ff5722"
       d="m 183.96875,133.97656 c -5.76953,0 -11.46875,1.26953 -16.6875,3.71485 -6.25391,2.92968 -11.61328,7.45703 -15.53516,13.11718 l -0.85547,-3.11328 c -0.52343,-1.90234 -2.51953,-3.03515 -4.41796,-2.51172 -1.90235,0.52344 -3.03516,2.52344 -2.51172,4.42188 l 3.10937,11.30078 c 0,0 -0.0117,-0.0547 -0.0195,-0.0937 0.008,0.0469 0.0273,0.10937 0.0273,0.10937 0.39063,1.41797 1.59375,2.41407 2.97657,2.59766 h 0.0156 c 0.004,0 0.0273,-0.004 0.0352,-0.004 0.0586,-0.004 0.17578,-0.0117 0.28515,-0.0234 -0.0273,0.008 -0.0312,0.004 -0.0625,0.008 0.36719,0.0195 0.7461,0.0234 1.1211,-0.0781 0.0117,0 0.0391,-0.008 0.0391,-0.008 h 0.004 c -0.0352,0.0117 -0.0273,0.0117 0.0273,-0.008 l 11.38672,-3.14063 c 1.89453,-0.52343 3.02344,-2.51171 2.50391,-4.40234 -0.52344,-1.89062 -2.50782,-3.01953 -4.40235,-2.49609 l -3.57812,0.98828 c 3.23047,-4.55469 7.60156,-8.31641 12.67968,-10.69922 7.69532,-3.60547 16.84766,-4.0625 24.86329,-1.20313 8.01562,2.85938 14.78515,8.9961 18.42187,16.64454 2.17188,4.5664 3.11719,9.64062 2.98047,14.6875 -0.0195,0.18359 -0.0195,0.37109 -0.008,0.55468 v 0.0117 c 0.0312,0.41406 0.14062,0.82031 0.32031,1.19531 0.80078,1.67969 2.82031,2.39844 4.51172,1.60938 1.30469,-0.60938 2.07812,-1.97656 1.92969,-3.40234 0.13671,-6.03516 -1.14063,-12.01954 -3.73438,-17.47657 -6.47266,-13.61718 -20.26953,-22.30468 -35.42578,-22.30078 z m -37.14063,37.19141 c -0.49218,0.004 -0.97656,0.11328 -1.42187,0.32422 -1.30078,0.60937 -2.07422,1.96875 -1.92578,3.39453 -0.13672,6.03515 1.14062,12.01953 3.73437,17.48047 9.23047,19.42578 32.5586,27.74609 52.10938,18.58593 6.2539,-2.93359 11.61328,-7.45703 15.53515,-13.11718 l 0.85547,3.11328 c 0.52344,1.90234 2.51953,3.03515 4.42188,2.51172 1.90234,-0.52344 3.03125,-2.52344 2.50781,-4.42578 l -3.10547,-11.30079 c 0,0 0.008,0.0547 0.0156,0.0977 -0.0117,-0.0508 -0.0234,-0.10937 -0.0234,-0.10937 -0.39453,-1.41797 -1.59375,-2.41797 -2.97656,-2.59766 h -0.0195 c -0.004,0 -0.0273,0.004 -0.0352,0.004 -0.0586,0.004 -0.17578,0.0117 -0.28125,0.0195 0.0273,-0.004 0.0312,-0.004 0.0586,-0.008 -0.36718,-0.0195 -0.74609,-0.0195 -1.12109,0.082 -0.0117,0 -0.0391,0.004 -0.0391,0.004 h -0.004 c 0.0352,-0.008 0.0312,-0.008 -0.0234,0.008 l -11.39062,3.14063 c -1.89453,0.52344 -3.02344,2.51172 -2.5,4.40234 0.51953,1.89063 2.50781,3.01953 4.39844,2.5 l 3.58203,-0.99218 c -3.23438,4.55859 -7.60157,8.32031 -12.67969,10.69921 -7.69922,3.60938 -16.85156,4.0625 -24.86719,1.20704 -8.01172,-2.85938 -14.78515,-8.9961 -18.42187,-16.64844 -2.16797,-4.56641 -3.11328,-9.64063 -2.98047,-14.6836 0.0586,-0.60546 -0.0469,-1.21093 -0.3086,-1.75781 -0.5664,-1.1875 -1.76953,-1.9414 -3.09375,-1.93359 z m 0,0"
       fill-opacity="1"
       fill-rule="nonzero"
       id="path3"
       clip-path="url(#clipPath24)"
       transform="translate(-1.3837638,-25.369003)" />
    <path
       fill="#000000"
       d="m 149.25686,138.06459 c 0.004,0 -0.10156,0.0391 -0.10156,0.0391 0,0 -0.0156,0.004 -0.0156,0.004 0.0274,-0.0117 0.11329,-0.043 0.11719,-0.043 z m 0,0"
       fill-opacity="1"
       fill-rule="nonzero"
       id="path4" />
    <path
       fill="#373435"
       d="m 180.36233,128.08022 c -2.05078,0 -3.72656,1.67187 -3.73047,3.72265 l -0.0234,17.24219 c -0.004,1.03125 0.42188,1.96484 1.09375,2.63672 0.17579,0.19531 0.375,0.38672 0.625,0.5664 l 12.6211,8.85938 c 1.67969,1.17969 4.01562,0.77344 5.19531,-0.90625 1.17969,-1.67969 0.76953,-4.01563 -0.91016,-5.19141 l -11.16406,-7.83984 0.0195,-15.35547 c 0,0 0,-0.004 0,-0.004 0.004,-2.05078 -1.67578,-3.72656 -3.72656,-3.73046 z m 0,0"
       fill-opacity="1"
       fill-rule="nonzero"
       id="path5" />
  </g>
</svg>
