<?xml version="1.0" standalone="no"?>
<!DOCTYPE svg PUBLIC "-//W3C//DTD SVG 20010904//EN"
 "http://www.w3.org/TR/2001/REC-SVG-20010904/DTD/svg10.dtd">
<svg version="1.0" xmlns="http://www.w3.org/2000/svg"
 width="108.000000pt" height="108.000000pt" viewBox="0 0 108.000000 108.000000"
 preserveAspectRatio="xMidYMid meet">
<metadata>
Created by potrace 1.14, written by Peter Selinger 2001-2017
</metadata>
<g transform="translate(0.000000,108.000000) scale(0.100000,-0.100000)"
fill="#000000" stroke="none">
<path d="M440 1069 c-19 -5 -42 -11 -51 -13 -50 -13 -150 -76 -206 -130 l-64
-63 -14 34 c-17 39 -55 45 -79 12 -13 -19 -12 -29 5 -92 27 -100 38 -125 57
-130 21 -4 178 38 196 53 45 36 11 87 -50 75 -36 -6 -37 -6 -23 12 109 139
305 198 471 142 163 -55 281 -203 294 -370 7 -81 15 -99 48 -99 33 0 46 19 46
70 -1 117 -62 264 -149 352 -54 55 -146 112 -216 135 -58 18 -214 25 -265 12z"/>
<path d="M486 804 c-13 -12 -16 -41 -16 -148 0 -91 4 -137 13 -148 21 -27 187
-138 205 -138 28 0 44 16 47 45 3 23 -7 34 -81 88 l-84 61 0 112 c0 95 -3 113
-18 127 -23 21 -46 22 -66 1z"/>
<path d="M22 568 c-30 -30 -2 -193 51 -292 17 -34 59 -88 92 -121 107 -106
228 -154 381 -150 147 3 267 57 368 165 l46 49 15 -34 c16 -40 51 -47 77 -17
15 15 14 24 -3 92 -25 100 -38 128 -57 133 -22 4 -179 -38 -198 -53 -18 -16
-18 -54 1 -70 9 -8 29 -10 50 -7 l36 6 -18 -23 c-31 -39 -88 -84 -139 -110
-199 -100 -437 -32 -559 159 -42 65 -54 105 -62 190 -3 38 -10 76 -15 83 -13
15 -50 16 -66 0z"/>
</g>
</svg>
